<svg width="112" height="38" viewBox="0 0 112 38" fill="none" xmlns="http://www.w3.org/2000/svg">
<path d="M13.875 24.0469C13.875 23.6406 13.8125 23.276 13.6875 22.9531C13.5729 22.6198 13.3542 22.3177 13.0312 22.0469C12.7083 21.7656 12.2552 21.4896 11.6719 21.2188C11.0885 20.9479 10.3333 20.6667 9.40625 20.375C8.375 20.0417 7.39583 19.6667 6.46875 19.25C5.55208 18.8333 4.73958 18.349 4.03125 17.7969C3.33333 17.2344 2.78125 16.5833 2.375 15.8438C1.97917 15.1042 1.78125 14.2448 1.78125 13.2656C1.78125 12.3177 1.98958 11.4583 2.40625 10.6875C2.82292 9.90625 3.40625 9.23958 4.15625 8.6875C4.90625 8.125 5.79167 7.69271 6.8125 7.39062C7.84375 7.08854 8.97396 6.9375 10.2031 6.9375C11.8802 6.9375 13.3438 7.23958 14.5938 7.84375C15.8438 8.44792 16.8125 9.27604 17.5 10.3281C18.1979 11.3802 18.5469 12.5833 18.5469 13.9375H13.8906C13.8906 13.2708 13.75 12.6875 13.4688 12.1875C13.1979 11.6771 12.7812 11.276 12.2188 10.9844C11.6667 10.6927 10.9688 10.5469 10.125 10.5469C9.3125 10.5469 8.63542 10.6719 8.09375 10.9219C7.55208 11.1615 7.14583 11.4896 6.875 11.9062C6.60417 12.3125 6.46875 12.7708 6.46875 13.2812C6.46875 13.6667 6.5625 14.0156 6.75 14.3281C6.94792 14.6406 7.23958 14.9323 7.625 15.2031C8.01042 15.474 8.48438 15.7292 9.04688 15.9688C9.60938 16.2083 10.2604 16.4427 11 16.6719C12.2396 17.0469 13.3281 17.4688 14.2656 17.9375C15.2135 18.4062 16.0052 18.9323 16.6406 19.5156C17.276 20.099 17.7552 20.7604 18.0781 21.5C18.401 22.2396 18.5625 23.0781 18.5625 24.0156C18.5625 25.0052 18.3698 25.8906 17.9844 26.6719C17.599 27.4531 17.0417 28.1146 16.3125 28.6562C15.5833 29.1979 14.7135 29.6094 13.7031 29.8906C12.6927 30.1719 11.5625 30.3125 10.3125 30.3125C9.1875 30.3125 8.07812 30.1667 6.98438 29.875C5.89062 29.5729 4.89583 29.1198 4 28.5156C3.11458 27.9115 2.40625 27.1406 1.875 26.2031C1.34375 25.2656 1.07812 24.1562 1.07812 22.875H5.78125C5.78125 23.5833 5.89062 24.1823 6.10938 24.6719C6.32812 25.1615 6.63542 25.5573 7.03125 25.8594C7.4375 26.1615 7.91667 26.3802 8.46875 26.5156C9.03125 26.651 9.64583 26.7188 10.3125 26.7188C11.125 26.7188 11.7917 26.6042 12.3125 26.375C12.8438 26.1458 13.2344 25.8281 13.4844 25.4219C13.7448 25.0156 13.875 24.5573 13.875 24.0469ZM29.25 30.3125C27.9375 30.3125 26.7604 30.1042 25.7188 29.6875C24.6771 29.2604 23.7917 28.6719 23.0625 27.9219C22.3438 27.1719 21.7917 26.3021 21.4062 25.3125C21.0208 24.3125 20.8281 23.25 20.8281 22.125V21.5C20.8281 20.2188 21.0104 19.0469 21.375 17.9844C21.7396 16.9219 22.2604 16 22.9375 15.2188C23.625 14.4375 24.4583 13.8385 25.4375 13.4219C26.4167 12.9948 27.5208 12.7812 28.75 12.7812C29.9479 12.7812 31.0104 12.9792 31.9375 13.375C32.8646 13.7708 33.6406 14.3333 34.2656 15.0625C34.901 15.7917 35.3802 16.6667 35.7031 17.6875C36.026 18.6979 36.1875 19.8229 36.1875 21.0625V22.9375H22.75V19.9375H31.7656V19.5938C31.7656 18.9688 31.651 18.4115 31.4219 17.9219C31.2031 17.4219 30.8698 17.026 30.4219 16.7344C29.974 16.4427 29.401 16.2969 28.7031 16.2969C28.1094 16.2969 27.599 16.4271 27.1719 16.6875C26.7448 16.9479 26.3958 17.3125 26.125 17.7812C25.8646 18.25 25.6667 18.8021 25.5312 19.4375C25.4062 20.0625 25.3438 20.75 25.3438 21.5V22.125C25.3438 22.8021 25.4375 23.4271 25.625 24C25.8229 24.5729 26.099 25.0677 26.4531 25.4844C26.8177 25.901 27.2552 26.224 27.7656 26.4531C28.2865 26.6823 28.875 26.7969 29.5312 26.7969C30.3438 26.7969 31.099 26.6406 31.7969 26.3281C32.5052 26.0052 33.1146 25.5208 33.625 24.875L35.8125 27.25C35.4583 27.7604 34.974 28.25 34.3594 28.7188C33.7552 29.1875 33.026 29.5729 32.1719 29.875C31.3177 30.1667 30.3438 30.3125 29.25 30.3125ZM47.875 26.1875V18.6562C47.875 18.1146 47.7865 17.651 47.6094 17.2656C47.4323 16.8698 47.1562 16.5625 46.7812 16.3438C46.4167 16.125 45.9427 16.0156 45.3594 16.0156C44.8594 16.0156 44.4271 16.1042 44.0625 16.2812C43.6979 16.4479 43.4167 16.6927 43.2188 17.0156C43.0208 17.3281 42.9219 17.6979 42.9219 18.125H38.4219C38.4219 17.4062 38.5885 16.724 38.9219 16.0781C39.2552 15.4323 39.7396 14.8646 40.375 14.375C41.0104 13.875 41.7656 13.4844 42.6406 13.2031C43.526 12.9219 44.5156 12.7812 45.6094 12.7812C46.9219 12.7812 48.0885 13 49.1094 13.4375C50.1302 13.875 50.9323 14.5312 51.5156 15.4062C52.1094 16.2812 52.4062 17.375 52.4062 18.6875V25.9219C52.4062 26.849 52.4635 27.6094 52.5781 28.2031C52.6927 28.7865 52.8594 29.2969 53.0781 29.7344V30H48.5312C48.3125 29.5417 48.1458 28.9688 48.0312 28.2812C47.9271 27.5833 47.875 26.8854 47.875 26.1875ZM48.4688 19.7031L48.5 22.25H45.9844C45.3906 22.25 44.875 22.3177 44.4375 22.4531C44 22.5885 43.6406 22.7812 43.3594 23.0312C43.0781 23.2708 42.8698 23.5521 42.7344 23.875C42.6094 24.1979 42.5469 24.5521 42.5469 24.9375C42.5469 25.3229 42.6354 25.6719 42.8125 25.9844C42.9896 26.2865 43.2448 26.526 43.5781 26.7031C43.9115 26.8698 44.3021 26.9531 44.75 26.9531C45.4271 26.9531 46.0156 26.8177 46.5156 26.5469C47.0156 26.276 47.401 25.9427 47.6719 25.5469C47.9531 25.151 48.099 24.776 48.1094 24.4219L49.2969 26.3281C49.1302 26.7552 48.901 27.1979 48.6094 27.6562C48.3281 28.1146 47.9688 28.5469 47.5312 28.9531C47.0938 29.349 46.5677 29.6771 45.9531 29.9375C45.3385 30.1875 44.6094 30.3125 43.7656 30.3125C42.6927 30.3125 41.7188 30.099 40.8438 29.6719C39.9792 29.2344 39.2917 28.6354 38.7812 27.875C38.2812 27.1042 38.0312 26.2292 38.0312 25.25C38.0312 24.3646 38.1979 23.5781 38.5312 22.8906C38.8646 22.2031 39.3542 21.625 40 21.1562C40.6562 20.6771 41.474 20.3177 42.4531 20.0781C43.4323 19.8281 44.5677 19.7031 45.8594 19.7031H48.4688Z" fill="white"/>
<path d="M59.6875 20.0859V30H56.3125V17.3203H59.4883L59.6875 20.0859ZM63.5078 17.2383L63.4492 20.3672C63.2852 20.3438 63.0859 20.3242 62.8516 20.3086C62.625 20.2852 62.418 20.2734 62.2305 20.2734C61.7539 20.2734 61.3398 20.3359 60.9883 20.4609C60.6445 20.5781 60.3555 20.7539 60.1211 20.9883C59.8945 21.2227 59.7227 21.5078 59.6055 21.8438C59.4961 22.1797 59.4336 22.5625 59.418 22.9922L58.7383 22.7812C58.7383 21.9609 58.8203 21.207 58.9844 20.5195C59.1484 19.8242 59.3867 19.2188 59.6992 18.7031C60.0195 18.1875 60.4102 17.7891 60.8711 17.5078C61.332 17.2266 61.8594 17.0859 62.4531 17.0859C62.6406 17.0859 62.832 17.1016 63.0273 17.1328C63.2227 17.1562 63.3828 17.1914 63.5078 17.2383ZM70.1055 27.5977C70.5195 27.5977 70.8867 27.5195 71.207 27.3633C71.5273 27.1992 71.7773 26.9727 71.957 26.6836C72.1445 26.3867 72.2422 26.0391 72.25 25.6406H75.4258C75.418 26.5312 75.1797 27.3242 74.7109 28.0195C74.2422 28.707 73.6133 29.25 72.8242 29.6484C72.0352 30.0391 71.1523 30.2344 70.1758 30.2344C69.1914 30.2344 68.332 30.0703 67.5977 29.7422C66.8711 29.4141 66.2656 28.9609 65.7812 28.3828C65.2969 27.7969 64.9336 27.1172 64.6914 26.3438C64.4492 25.5625 64.3281 24.7266 64.3281 23.8359V23.4961C64.3281 22.5977 64.4492 21.7617 64.6914 20.9883C64.9336 20.207 65.2969 19.5273 65.7812 18.9492C66.2656 18.3633 66.8711 17.9062 67.5977 17.5781C68.3242 17.25 69.1758 17.0859 70.1523 17.0859C71.1914 17.0859 72.1016 17.2852 72.8828 17.6836C73.6719 18.082 74.2891 18.6523 74.7344 19.3945C75.1875 20.1289 75.418 21 75.4258 22.0078H72.25C72.2422 21.5859 72.1523 21.2031 71.9805 20.8594C71.8164 20.5156 71.5742 20.2422 71.2539 20.0391C70.9414 19.8281 70.5547 19.7227 70.0938 19.7227C69.6016 19.7227 69.1992 19.8281 68.8867 20.0391C68.5742 20.2422 68.332 20.5234 68.1602 20.8828C67.9883 21.2344 67.8672 21.6367 67.7969 22.0898C67.7344 22.5352 67.7031 23.0039 67.7031 23.4961V23.8359C67.7031 24.3281 67.7344 24.8008 67.7969 25.2539C67.8594 25.707 67.9766 26.1094 68.1484 26.4609C68.3281 26.8125 68.5742 27.0898 68.8867 27.293C69.1992 27.4961 69.6055 27.5977 70.1055 27.5977ZM80.6758 12V30H77.3008V12H80.6758ZM80.1953 23.2148H79.2695C79.2773 22.332 79.3945 21.5195 79.6211 20.7773C79.8477 20.0273 80.1719 19.3789 80.5938 18.832C81.0156 18.2773 81.5195 17.8477 82.1055 17.543C82.6992 17.2383 83.3555 17.0859 84.0742 17.0859C84.6992 17.0859 85.2656 17.1758 85.7734 17.3555C86.2891 17.5273 86.7305 17.8086 87.0977 18.1992C87.4727 18.582 87.7617 19.0859 87.9648 19.7109C88.168 20.3359 88.2695 21.0938 88.2695 21.9844V30H84.8711V21.9609C84.8711 21.3984 84.7891 20.957 84.625 20.6367C84.4688 20.3086 84.2383 20.0781 83.9336 19.9453C83.6367 19.8047 83.2695 19.7344 82.832 19.7344C82.3477 19.7344 81.9336 19.8242 81.5898 20.0039C81.2539 20.1836 80.9844 20.4336 80.7812 20.7539C80.5781 21.0664 80.4297 21.4336 80.3359 21.8555C80.2422 22.2773 80.1953 22.7305 80.1953 23.2148ZM96.6719 30.2344C95.6875 30.2344 94.8047 30.0781 94.0234 29.7656C93.2422 29.4453 92.5781 29.0039 92.0312 28.4414C91.4922 27.8789 91.0781 27.2266 90.7891 26.4844C90.5 25.7344 90.3555 24.9375 90.3555 24.0938V23.625C90.3555 22.6641 90.4922 21.7852 90.7656 20.9883C91.0391 20.1914 91.4297 19.5 91.9375 18.9141C92.4531 18.3281 93.0781 17.8789 93.8125 17.5664C94.5469 17.2461 95.375 17.0859 96.2969 17.0859C97.1953 17.0859 97.9922 17.2344 98.6875 17.5312C99.3828 17.8281 99.9648 18.25 100.434 18.7969C100.91 19.3438 101.27 20 101.512 20.7656C101.754 21.5234 101.875 22.3672 101.875 23.2969V24.7031H91.7969V22.4531H98.5586V22.1953C98.5586 21.7266 98.4727 21.3086 98.3008 20.9414C98.1367 20.5664 97.8867 20.2695 97.5508 20.0508C97.2148 19.832 96.7852 19.7227 96.2617 19.7227C95.8164 19.7227 95.4336 19.8203 95.1133 20.0156C94.793 20.2109 94.5312 20.4844 94.3281 20.8359C94.1328 21.1875 93.9844 21.6016 93.8828 22.0781C93.7891 22.5469 93.7422 23.0625 93.7422 23.625V24.0938C93.7422 24.6016 93.8125 25.0703 93.9531 25.5C94.1016 25.9297 94.3086 26.3008 94.5742 26.6133C94.8477 26.9258 95.1758 27.168 95.5586 27.3398C95.9492 27.5117 96.3906 27.5977 96.8828 27.5977C97.4922 27.5977 98.0586 27.4805 98.582 27.2461C99.1133 27.0039 99.5703 26.6406 99.9531 26.1562L101.594 27.9375C101.328 28.3203 100.965 28.6875 100.504 29.0391C100.051 29.3906 99.5039 29.6797 98.8633 29.9062C98.2227 30.125 97.4922 30.2344 96.6719 30.2344ZM107.172 20.0859V30H103.797V17.3203H106.973L107.172 20.0859ZM110.992 17.2383L110.934 20.3672C110.77 20.3438 110.57 20.3242 110.336 20.3086C110.109 20.2852 109.902 20.2734 109.715 20.2734C109.238 20.2734 108.824 20.3359 108.473 20.4609C108.129 20.5781 107.84 20.7539 107.605 20.9883C107.379 21.2227 107.207 21.5078 107.09 21.8438C106.98 22.1797 106.918 22.5625 106.902 22.9922L106.223 22.7812C106.223 21.9609 106.305 21.207 106.469 20.5195C106.633 19.8242 106.871 19.2188 107.184 18.7031C107.504 18.1875 107.895 17.7891 108.355 17.5078C108.816 17.2266 109.344 17.0859 109.938 17.0859C110.125 17.0859 110.316 17.1016 110.512 17.1328C110.707 17.1562 110.867 17.1914 110.992 17.2383Z" fill="white"/>
</svg>
