<svg width="1205" height="46" viewBox="0 0 1205 46" fill="none" xmlns="http://www.w3.org/2000/svg">
<path fill-rule="evenodd" clip-rule="evenodd" d="M243.154 0.461828C236.763 2.76166 236.163 11.8443 242.211 14.7398C245.236 16.1878 248.826 15.5858 251.151 13.24C252.796 11.5802 253.053 10.9671 253.224 8.28284C253.376 5.88848 253.189 4.85025 252.366 3.52897C250.502 0.535232 246.58 -0.770734 243.154 0.461828ZM286.338 22.1183V37.1688H289.217H292.096V22.1183V7.0677H289.217H286.338V22.1183ZM350.031 15.7675C348.931 16.1567 347.73 16.8896 347.362 17.3971C346.572 18.4882 345.489 17.9944 345.489 16.5422C345.489 15.664 345.113 15.5171 342.871 15.5171H340.254V26.343V37.1688H343.133H346.012V30.375C346.012 24.3014 346.127 23.4332 347.097 22.1896C348.482 20.4125 350.847 20.3074 352.002 21.972C352.64 22.8909 352.817 24.6658 352.817 30.1574V37.1688H355.696H358.575V30.375C358.575 24.3014 358.69 23.4332 359.66 22.1896C360.448 21.1777 361.227 20.798 362.509 20.798C365.455 20.798 365.903 22.0348 365.903 30.1574V37.1688H368.782H371.661L371.65 29.3795C371.636 20.101 370.972 17.8941 367.727 16.341C365.287 15.1723 361.701 15.467 359.639 17.0048L358.195 18.0821L356.422 16.8564C354.028 15.2019 352.411 14.9262 350.031 15.7675ZM271.169 16.078C270.455 16.3811 269.469 16.9963 268.978 17.4452C268.001 18.3366 266.971 18.0092 266.971 16.8062C266.971 16.2449 266.283 16.0452 264.353 16.0452H261.736V30.8317V45.6183H264.615H267.494V40.3374C267.494 37.4329 267.621 35.0565 267.777 35.0565C267.933 35.0565 268.778 35.5914 269.654 36.2447C272.04 38.0217 276.654 37.8992 279.13 35.9933C281.874 33.882 282.92 31.2885 282.916 26.607C282.911 22.0137 281.664 19.0078 278.955 17.0618C277.09 15.7215 273.173 15.2267 271.169 16.078ZM301.353 16.2496C298.835 17.1965 297.542 18.3704 296.868 20.3212L296.338 21.8542H298.977C300.822 21.8542 302.015 21.5368 302.946 20.798C303.678 20.2171 304.9 19.7419 305.66 19.7419C307.428 19.7419 309.37 21.1059 309.37 22.3475C309.37 23.1887 308.788 23.3376 304.726 23.5335C299.561 23.7823 297.952 24.4978 296.261 27.2957C295.023 29.3441 294.961 31.4058 296.067 33.7574C297.144 36.0466 298.882 37.1567 301.935 37.5052C303.932 37.7334 304.876 37.5269 306.931 36.4115C309.405 35.0676 309.469 35.0607 309.739 36.1026C309.964 36.9676 310.449 37.1688 312.311 37.1688H314.605V29.0083C314.605 19.9198 314.301 18.7073 311.603 17.0248C309.323 15.6032 304.12 15.2098 301.353 16.2496ZM323.195 16.0547C318.09 17.649 316.623 24.2465 320.817 26.7454C321.618 27.2228 323.879 27.8723 325.843 28.1887C330.316 28.9095 331.467 29.5062 331.256 30.9944C330.876 33.6745 325.318 34.089 323.675 31.5595C323 30.5207 322.417 30.3037 320.303 30.3037C317.355 30.3037 317.054 31.0002 318.772 33.8424C320.095 36.0324 322.434 37.2195 326.075 37.5496C329.813 37.8881 333.219 36.9539 335.075 35.0813C336.944 33.196 337.41 31.2706 336.63 28.6465C335.89 26.1571 333.791 24.6758 330.326 24.1974C325.654 23.5531 324.027 22.9389 324.027 21.8209C324.027 19.7197 328.316 19.255 330.382 21.1329C330.964 21.662 332.103 21.8611 333.917 21.7518L336.592 21.5902L335.675 19.7598C335.17 18.7533 333.981 17.4774 333.032 16.9245C331.045 15.7675 325.643 15.2895 323.195 16.0547ZM380.394 16.2496C377.877 17.1965 376.584 18.3704 375.909 20.3212L375.38 21.8542H378.018C379.864 21.8542 381.056 21.5368 381.987 20.798C382.72 20.2171 383.941 19.7419 384.701 19.7419C386.47 19.7419 388.412 21.1059 388.412 22.3475C388.412 23.1887 387.829 23.3376 383.767 23.5335C378.603 23.7823 376.994 24.4978 375.302 27.2957C374.064 29.3441 374.003 31.4058 375.109 33.7574C376.185 36.0466 377.923 37.1567 380.976 37.5052C382.973 37.7334 383.917 37.5269 385.972 36.4115C388.447 35.0676 388.511 35.0607 388.781 36.1026C389.005 36.9676 389.49 37.1688 391.352 37.1688H393.646V29.0083C393.646 19.9198 393.342 18.7073 390.645 17.0248C388.364 15.6032 383.161 15.2098 380.394 16.2496ZM407.272 16.8812C406.272 17.3185 405.036 18.0588 404.523 18.5267C403.652 19.322 403.592 19.2861 403.592 17.9754C403.592 16.8321 403.35 16.5733 402.283 16.5733H400.974V31.0958V45.6183H402.283H403.592V40.0892V34.5601L405.477 35.8507C413.121 41.0841 421.472 34.0452 419.406 24.1102C418.061 17.6432 412.755 14.4821 407.272 16.8812ZM427.845 16.6245C426.102 17.1336 423.483 19.8227 423.483 21.1028C423.483 22.3337 425.789 21.9973 426.369 20.6813C426.653 20.036 427.758 19.1757 428.826 18.7696C432.69 17.2994 437.093 19.4915 437.093 22.8866V24.4947H432.365C426.77 24.4947 424.463 25.2974 422.973 27.7635C420.166 32.4081 423.707 37.6969 429.624 37.6969C430.78 37.6969 432.808 37.1197 434.256 36.3788C435.672 35.6537 436.89 35.0596 436.962 35.0586C437.033 35.0575 437.093 35.5317 437.093 36.1126C437.093 36.8874 437.442 37.1688 438.401 37.1688H439.71V29.4946C439.71 20.1717 439.234 18.6065 435.935 17.0961C433.55 16.004 430.565 15.8303 427.845 16.6245ZM443.354 20.9301C444.457 23.326 446.406 27.5523 447.686 30.3211L450.013 35.3554L448.258 39.5627C445.71 45.6716 445.72 45.6183 447.157 45.6183C448.265 45.6183 448.829 44.5726 452.643 35.4525C454.982 29.8611 457.737 23.3107 458.766 20.8957L460.638 16.5041L459.243 16.671C457.984 16.821 457.557 17.5355 454.901 23.9323C453.281 27.8338 451.71 31.109 451.41 31.2099C451.11 31.3107 449.356 28.0672 447.512 24.0014C444.425 17.1938 444.048 16.6076 442.754 16.5913L441.348 16.5733L443.354 20.9301ZM414.521 19.9167C418.169 23.2721 418.107 30.5022 414.402 33.9496C411.498 36.6502 406.579 35.3474 404.479 31.3223C403.202 28.8725 403.463 23.5256 404.962 21.464C407.386 18.1285 411.8 17.414 414.521 19.9167ZM274.502 20.7753C278.172 22.1832 278.421 30.4732 274.851 32.4002C272.945 33.43 270.645 33.0355 269.024 31.4005C267.665 30.0285 267.494 29.4946 267.494 26.607C267.494 23.7194 267.665 23.1855 269.024 21.8136C270.621 20.2024 272.218 19.8998 274.502 20.7753ZM437.093 28.4818C437.093 31.3836 435.762 33.4247 433.095 34.615C428.844 36.5119 424.53 34.6213 424.53 30.8613C424.53 27.7498 426.613 26.644 432.512 26.6229L437.093 26.607V28.4818ZM309.37 28.7432C309.37 31.1079 307.338 32.9441 304.72 32.9441C302.35 32.9441 300.995 31.8848 300.995 30.0317C300.995 28.1454 302.861 27.1351 306.346 27.1351C309.367 27.1351 309.37 27.1367 309.37 28.7432ZM388.412 28.7432C388.412 31.1079 386.379 32.9441 383.762 32.9441C381.391 32.9441 380.036 31.8848 380.036 30.0317C380.036 28.1454 381.902 27.1351 385.388 27.1351C388.408 27.1351 388.412 27.1367 388.412 28.7432Z" fill="white"/>
<path fill-rule="evenodd" clip-rule="evenodd" d="M555.266 9.48122C554.432 10.0171 553.653 11.4456 553.653 12.4409C553.653 13.3057 554.369 14.6535 555.115 15.1951C555.459 15.4445 556.292 15.6483 556.966 15.6483C557.987 15.6483 558.352 15.4831 559.146 14.6613C559.939 13.8395 560.098 13.4616 560.098 12.4038C560.098 10.9527 559.58 10.0301 558.414 9.40546C557.358 8.8397 556.222 8.86699 555.266 9.48122ZM578.4 9.53783C577.265 10.2548 576.911 10.9509 576.911 12.465C576.911 13.4532 577.085 13.8549 577.863 14.6613C578.657 15.4831 579.021 15.6483 580.043 15.6483C581.443 15.6483 582.334 15.1115 582.937 13.9034C583.468 12.8401 583.466 12.0584 582.931 10.8897C582.103 9.08296 580.077 8.4783 578.4 9.53783ZM674.983 24.2249V36.575L676.875 36.4894L678.766 36.4034L678.906 30.4527C679.004 26.3063 679.158 24.2993 679.415 23.8331C680.3 22.2258 682.809 21.5581 684.52 22.4748C686.119 23.3317 686.315 24.175 686.424 30.6831L686.522 36.5738L688.388 36.4888L690.255 36.4034L690.334 31.0332C690.377 28.0796 690.288 24.8293 690.136 23.8104C689.604 20.2368 687.62 18.4283 684.23 18.4266C682.196 18.4254 680.953 18.9557 679.68 20.3665L678.906 21.2252V16.5499V11.8746H676.945H674.983V24.2249ZM757.925 24.2116V36.5486H759.887H761.848V24.2116V11.8746H759.887H757.925V24.2116ZM767.172 24.2116V36.5486H769.133H771.095V24.2116V11.8746H769.133H767.172V24.2116ZM615.019 24.6348V36.5486H616.98H618.942L618.942 28.0578L618.942 19.5671L622.539 25.157L626.135 30.7473L629.754 25.157L633.373 19.5671L633.447 28.0578L633.521 36.5486H635.481H637.442L637.369 24.7196L637.296 12.8906H635.211H633.127L629.747 18.3322C627.888 21.3253 626.274 23.7419 626.159 23.7024C626.045 23.6633 624.453 21.2144 622.623 18.2608L619.296 12.8906L617.157 12.8058L615.019 12.7211V24.6348ZM703.565 13.0903C703.565 13.2799 705.299 18.6396 707.418 25.0012L711.27 36.5672L713.056 36.4853L714.841 36.4034L717.531 28.2184C719.01 23.7164 720.287 20.0971 720.369 20.1755C720.45 20.2539 721.719 23.937 723.188 28.3606L725.859 36.4034L727.671 36.4818L729.484 36.5602L733.339 24.8705C735.46 18.4411 737.194 13.0828 737.192 12.9632C737.191 12.8436 736.311 12.7454 735.238 12.7454C733.657 12.7454 733.242 12.8418 733.049 13.2534C732.918 13.533 731.692 17.3862 730.323 21.8168C728.955 26.2471 727.756 29.8721 727.66 29.8721C727.563 29.8721 726.286 26.0514 724.822 21.3813L722.161 12.8906L720.446 12.8047L718.73 12.7187L715.932 21.5131C714.393 26.3501 713.065 30.1116 712.982 29.8721C712.898 29.6326 711.739 25.9097 710.405 21.5991C709.071 17.2884 707.865 13.533 707.724 13.2534C707.517 12.8436 707.091 12.7454 705.516 12.7454C704.196 12.7454 703.565 12.8569 703.565 13.0903ZM662.374 16.2114V18.516L661.323 18.6062L660.273 18.6962L660.189 20.3654L660.104 22.0345H661.239H662.374V27.4883C662.374 32.5688 662.417 33.0304 663.005 34.2307C663.886 36.0316 665.104 36.7024 667.418 36.6612C668.42 36.6432 669.586 36.4833 670.01 36.3056C670.731 36.0029 670.78 35.8705 670.78 34.2234C670.78 32.574 670.746 32.4829 670.238 32.7648C669.305 33.2823 667.478 33.1276 666.851 32.4777C666.32 31.9276 666.288 31.5801 666.36 27.0349L666.437 22.1796L668.763 22.0951L671.088 22.0107L671.004 20.3535L670.92 18.6962L668.609 18.6121L666.297 18.5276V16.2172V13.9066H664.336H662.374V16.2114ZM796.594 16.2288V18.5511H795.473H794.352V20.2754V21.9994L795.403 22.0896L796.454 22.1796L796.594 27.9853C796.749 34.4057 796.915 35.0635 798.66 36.1309C799.727 36.7843 802.761 36.8763 804.089 36.2958C804.969 35.9111 805 35.8403 805 34.1982V32.4992L804.281 32.7822C803.105 33.2455 801.496 33.1247 800.98 32.5343C800.587 32.0838 800.517 31.2498 800.517 27.0189V22.0345H802.758H805V20.2928V18.5511H802.758H800.517V16.2288V13.9066H798.555H796.594V16.2288ZM549.518 15.4523C548.541 16.0146 547.973 17.0556 547.973 18.2843C547.973 22.1837 553.043 22.9535 554.228 19.2341C555.099 16.4985 552.01 14.0183 549.518 15.4523ZM560.491 16.0547C559.692 16.8823 559.538 17.2506 559.538 18.3377C559.538 21.3645 562.903 22.8229 564.964 20.6887C567.024 18.5543 565.616 15.0677 562.694 15.0677C561.645 15.0677 561.289 15.2271 560.491 16.0547ZM572.363 15.6384C570.82 16.8956 570.671 19.2652 572.045 20.6887C574.106 22.8229 577.471 21.3645 577.471 18.3377C577.471 17.2506 577.317 16.8823 576.518 16.0547C575.72 15.2271 575.364 15.0677 574.315 15.0677C573.495 15.0677 572.822 15.2645 572.363 15.6384ZM584.015 15.6268C581.631 17.1325 582.543 21.1654 585.374 21.6411C587.237 21.9547 588.988 20.4217 589.042 18.4283C589.117 15.6979 586.346 14.1539 584.015 15.6268ZM781.273 18.6605C777.254 20.0249 775.105 23.5021 775.356 28.2369C775.551 31.9041 777.059 34.3822 780.01 35.8838C781.404 36.5924 781.918 36.6923 784.124 36.6815C786.286 36.6711 786.846 36.5608 788.047 35.9103C788.818 35.4928 789.803 34.7645 790.236 34.2916L791.023 33.4321L789.916 32.523C789.306 32.0228 788.722 31.6138 788.619 31.6138C788.515 31.6138 788.017 31.9406 787.511 32.3401C785.789 33.7012 782.833 33.7996 781.204 32.5497C780.28 31.8408 779.221 30.2332 779.221 29.5389C779.221 29.0314 779.576 29.0013 785.526 29.0013H791.83L791.826 27.9127C791.81 23.993 789.684 20.1659 786.836 18.9296C785.458 18.3313 782.643 18.1952 781.273 18.6605ZM645.56 18.9642C644.866 19.163 644.026 19.4762 643.693 19.6606C643.102 19.9886 643.098 20.0254 643.538 21.4504C643.785 22.2507 644.121 22.9039 644.284 22.9021C644.447 22.9004 645.2 22.7045 645.956 22.4667C647.692 21.9213 650.06 21.912 651.293 22.4455C652.374 22.9132 652.981 23.7721 653.233 25.1878C653.405 26.1565 653.399 26.1629 652.496 25.9942C647.052 24.9779 643.427 25.9649 642.183 28.8027C640.742 32.0907 642.215 35.4505 645.536 36.4505C648.041 37.2049 651.337 36.492 652.586 34.9262C652.953 34.4649 652.999 34.5062 653.127 35.4127L653.267 36.4034L655.159 36.4894L657.05 36.575V30.5186C657.05 26.0079 656.944 24.0917 656.634 23.0107C656.087 21.1027 654.587 19.5488 652.745 18.9822C651.073 18.4675 647.328 18.4585 645.56 18.9642ZM742.374 18.7331C740.526 19.2126 739.151 19.8077 739.151 20.1276C739.151 20.6214 739.736 22.4092 739.995 22.7097C740.109 22.8415 740.871 22.7433 741.689 22.492C743.536 21.9239 745.873 21.9039 747.124 22.4455C748.208 22.9149 748.868 23.8174 749.134 25.1942L749.318 26.1463L747.947 25.9045C747.193 25.7719 745.559 25.663 744.315 25.663C742.353 25.663 741.836 25.7785 740.413 26.5339C739.133 27.214 738.631 27.6851 738.122 28.684C736.002 32.844 739.433 37.2743 744.369 36.7506C745.867 36.5916 747.754 35.7555 748.381 34.9732C748.959 34.2519 749.239 34.4342 749.239 35.5326V36.5486H751.078H752.919L752.83 29.7995L752.741 23.0505L751.963 21.6795C751.458 20.7895 750.722 20.0269 749.865 19.507C748.689 18.7929 748.241 18.6994 745.74 18.6469C744.197 18.6144 742.682 18.6533 742.374 18.7331ZM555.755 21.1503C553.901 21.9448 553.162 24.4049 554.27 26.0984C555.511 27.998 557.805 28.1301 559.328 26.3896C561.497 23.91 558.742 19.8704 555.755 21.1503ZM578.68 21.2844C576.859 22.1329 576.329 24.8438 577.681 26.3896C579.204 28.1301 581.497 27.998 582.739 26.0984C584.523 23.3709 581.611 19.9183 578.68 21.2844ZM543.868 22.4957C542.167 23.9785 543.162 26.7951 545.387 26.7951C547.568 26.7951 548.525 24.2241 546.95 22.5927C545.934 21.5404 544.998 21.5108 543.868 22.4957ZM567.664 21.95C565.575 22.7457 565.586 25.8851 567.679 26.641C569.754 27.3905 571.611 25.2099 570.609 23.2008C570.023 22.0281 568.811 21.5131 567.664 21.95ZM590.059 22.5927C588.484 24.2241 589.44 26.7951 591.622 26.7951C593.847 26.7951 594.842 23.9785 593.141 22.4957C592.011 21.5108 591.075 21.5404 590.059 22.5927ZM786.125 22.6391C786.848 23.3288 787.889 25.3141 787.901 26.0259C787.906 26.301 786.848 26.3887 783.529 26.3887H779.151L779.326 25.4787C779.59 24.1146 780.514 22.7448 781.534 22.2052C782.856 21.5062 785.167 21.7245 786.125 22.6391ZM549.55 28.5281C547.89 30.0074 549.006 32.7749 551.262 32.7749C551.968 32.7749 552.383 32.5523 552.928 31.8817C553.846 30.7514 553.846 29.8637 552.928 28.7333C552.009 27.6021 550.68 27.5214 549.55 28.5281ZM561.066 28.5528C559.583 30.0886 560.619 32.7749 562.695 32.7749C564.237 32.7749 565.396 31.2518 565.024 29.7142C564.579 27.879 562.348 27.2244 561.066 28.5528ZM572.764 28.4288C571.626 29.5272 571.633 31.0953 572.782 32.2042C574.211 33.5834 576.63 32.3909 576.63 30.3075C576.63 28.2082 574.211 27.0326 572.764 28.4288ZM584.081 28.7333C583.682 29.2245 583.355 29.9328 583.355 30.3075C583.355 31.437 584.652 32.7749 585.746 32.7749C587.14 32.7749 588.231 31.6913 588.231 30.3075C588.231 28.0024 585.512 26.971 584.081 28.7333ZM651.993 28.4448C653.304 28.7359 653.407 28.8219 653.407 29.6152C653.407 32.096 651.572 33.7813 648.87 33.7813C646.263 33.7813 645.103 32.3857 645.691 29.9583C646.05 28.4753 648.972 27.7736 651.993 28.4448ZM747.824 28.4448C749.211 28.7531 749.239 28.7795 749.237 29.8236C749.235 32.5807 746.349 34.4812 743.409 33.6611C742.078 33.2899 741.393 32.4457 741.393 31.1784C741.393 28.7072 744.006 27.5966 747.824 28.4448ZM538.426 29.2419C537.47 30.3351 538.222 31.9041 539.701 31.9041C540.565 31.9041 541.114 31.2843 541.114 30.3075C541.114 29.9093 540.957 29.3873 540.765 29.1473C540.284 28.547 538.987 28.5995 538.426 29.2419ZM596.244 29.1473C596.052 29.3873 595.895 29.9093 595.895 30.3075C595.895 31.3009 596.447 31.9041 597.357 31.9041C598.233 31.9041 599.047 31.1113 599.047 30.257C599.047 28.9766 597.023 28.1751 596.244 29.1473ZM544.469 34.9686C543.276 35.8339 543.967 38 545.436 38C546.817 38 547.449 35.7982 546.306 34.9686C545.963 34.7201 545.55 34.5166 545.387 34.5166C545.225 34.5166 544.811 34.7201 544.469 34.9686ZM567.804 34.8635C566.67 35.5297 566.509 36.5129 567.384 37.4194C568.332 38.402 569.638 38.0113 570.035 36.6261C570.17 36.1532 570.03 35.7799 569.515 35.2473C568.724 34.4272 568.596 34.3985 567.804 34.8635ZM590.703 34.9686C589.511 35.8339 590.202 38 591.67 38C593.052 38 593.683 35.7982 592.54 34.9686C592.197 34.7201 591.784 34.5166 591.622 34.5166C591.459 34.5166 591.046 34.7201 590.703 34.9686Z" fill="white"/>
<path fill-rule="evenodd" clip-rule="evenodd" d="M910.054 9.60836L903.871 15.2167L898.971 10.7835C896.276 8.34547 893.989 6.35035 893.888 6.35035C893.788 6.35035 893.766 7.03202 893.839 7.86502C893.912 8.69802 893.791 9.57723 893.57 9.81896C893.259 10.1585 894.377 11.3926 898.489 15.2515L903.81 20.2449L910.134 14.5361L916.458 8.82692L916.348 6.41363L916.238 4L910.054 9.60836ZM979.684 9.83637L978.648 10.6443L978.54 22.1406C978.481 28.4637 978.529 33.9891 978.647 34.419C978.766 34.8492 979.295 35.5647 979.824 36.0093C980.645 36.6987 981.155 36.8178 983.289 36.8178C985.592 36.8178 985.883 36.7355 986.928 35.7876L988.065 34.7574V22.9233V11.0892L986.928 10.059C985.88 9.1085 985.596 9.02881 983.256 9.02881C981.108 9.02881 980.561 9.15236 979.684 9.83637ZM1037.46 9.68704C1036.02 10.7146 1035.58 12.0752 1035.78 14.8926C1035.95 17.1928 1036.2 17.846 1038.98 23.0047C1041.96 28.5638 1041.99 28.6388 1041.98 31.2169C1041.98 33.6971 1041.94 33.8377 1041.01 34.2181C1040.16 34.5706 1039.97 34.5261 1039.35 33.8391C1038.81 33.2351 1038.66 32.5109 1038.66 30.6045V28.148L1037.27 28.5849L1035.89 29.0219V31.9434C1035.89 34.82 1035.91 34.8803 1037.09 35.8415C1038.14 36.6923 1038.59 36.8178 1040.54 36.8178C1042.53 36.8178 1042.9 36.709 1043.89 35.8097L1045 34.8013L1044.88 31.1392L1044.75 27.477L1041.85 22.2909C1039.37 17.8724 1038.92 16.7923 1038.76 14.9921C1038.6 13.2189 1038.69 12.7465 1039.31 12.0541C1039.97 11.3206 1040.15 11.2734 1041.01 11.6286C1041.9 11.9955 1041.98 12.1924 1041.98 14.0663C1041.98 15.9449 1042.04 16.0899 1042.72 15.9148C1043.13 15.8103 1043.79 15.6396 1044.2 15.5351C1044.84 15.3701 1044.94 15.0584 1044.94 13.1657C1044.94 11.2031 1044.83 10.8887 1043.86 10.0075C1042.9 9.14532 1042.51 9.02881 1040.58 9.02881C1038.96 9.02881 1038.15 9.20023 1037.46 9.68704ZM940.427 22.9233V36.483H944.652C946.975 36.483 948.95 36.3699 949.039 36.2319C949.129 36.094 949.318 35.491 949.46 34.8927L949.717 33.8046H946.549H943.381V28.7992V23.7938L945.469 23.6934C947.508 23.5953 947.567 23.5642 948.024 22.3659C948.28 21.6909 948.393 21.0508 948.275 20.9429C948.156 20.8351 947.006 20.7471 945.72 20.7471H943.381V16.3946V12.0421H946.114H948.848L949.253 10.9878C949.476 10.4079 949.659 9.80523 949.659 9.64854C949.659 9.49185 947.581 9.36362 945.043 9.36362H940.427V22.9233ZM958.152 9.48415C958.152 9.55011 959.066 12.4957 960.183 16.0296C961.301 19.5635 962.215 22.6659 962.215 22.9233C962.215 23.1808 961.301 26.2831 960.183 29.817C959.066 33.3509 958.152 36.2966 958.152 36.3625C958.152 36.4288 958.81 36.483 959.614 36.483H961.075L961.852 34.0557C962.278 32.7205 962.916 30.8161 963.269 29.823L963.911 28.0178L965.12 31.8319C965.784 33.9298 966.394 35.8345 966.475 36.0645C966.562 36.3096 967.25 36.483 968.136 36.483C969.406 36.483 969.619 36.3886 969.455 35.8971C968.381 32.6689 965.538 23.2535 965.538 22.9233C965.538 22.5919 968.399 13.1198 969.462 9.92877C969.639 9.39944 969.465 9.3355 968.097 9.42656L966.529 9.53102L965.225 13.6934L963.921 17.8553L963.274 16.037C962.918 15.0366 962.278 13.1259 961.852 11.791L961.075 9.36362H959.614C958.81 9.36362 958.152 9.41786 958.152 9.48415ZM997.666 22.9233V36.483H1001.39C1005.01 36.483 1005.14 36.4566 1006.19 35.5044L1007.27 34.5258V22.9233V11.3209L1006.19 10.3423C1005.14 9.39007 1005.01 9.36362 1001.39 9.36362H997.666V22.9233ZM1016.87 21.5342C1016.87 29.578 1017.01 34.0657 1017.28 34.7692C1017.82 36.1891 1019.29 36.8178 1022.05 36.8178C1024.06 36.8178 1024.43 36.708 1025.39 35.8392L1026.47 34.8606V22.1121V9.36362H1025H1023.53L1023.43 21.6598L1023.33 33.9559L1022.28 34.2921C1021.37 34.5813 1021.13 34.5187 1020.52 33.8444C1019.87 33.1082 1019.82 32.3438 1019.82 21.2121V9.36362H1018.35H1016.87V21.5342ZM919.562 11.7006C919.156 11.8576 916.123 14.4487 912.822 17.4583L906.821 22.9307L913.096 28.612L919.37 34.2934L922.236 34.4123L925.101 34.5311L918.732 28.7249L912.363 22.9186L918.731 17.1456L925.098 11.3725L922.699 11.3936C921.38 11.4053 919.968 11.5436 919.562 11.7006ZM984.53 11.8984C985.033 12.3545 985.11 13.8256 985.11 22.9233C985.11 32.0211 985.033 33.4922 984.53 33.9482C983.856 34.5596 983.134 34.6138 982.132 34.1277C981.448 33.7959 981.417 33.3154 981.417 22.9284C981.417 12.9454 981.469 12.0481 982.064 11.7341C983 11.2399 983.867 11.2975 984.53 11.8984ZM1003.87 12.4438C1004.5 13.018 1004.5 32.8286 1003.87 33.4028C1003.63 33.6238 1002.8 33.8046 1002.02 33.8046H1000.62V22.9233V12.0421H1002.02C1002.8 12.0421 1003.63 12.2229 1003.87 12.4438ZM893.077 16.0812C893.743 16.7793 893.896 17.3491 893.896 19.1263C893.896 20.8877 894.04 21.4308 894.635 21.9189C895.557 22.6756 895.561 23.0338 894.657 23.9067C894.141 24.4042 893.909 25.1796 893.83 26.6661C893.769 27.8035 893.809 28.8156 893.919 28.915C894.029 29.0145 895.647 27.7044 897.515 26.0039L900.912 22.9116L896.585 19.067C894.205 16.9527 892.626 15.6091 893.077 16.0812ZM899.978 29.201C895.195 33.6479 892.849 35.9738 893.466 35.6567C893.84 35.4646 893.943 35.6758 893.891 36.5292C893.677 40.0059 893.433 40.0735 898.882 35.1435L903.868 30.6323L910.145 36.316L916.423 42V39.4889V36.9779L910.233 31.3735C906.829 28.2913 903.959 25.7692 903.856 25.7692C903.753 25.7692 902.008 27.3137 899.978 29.201Z" fill="white"/>
<path fill-rule="evenodd" clip-rule="evenodd" d="M1099.8 1.95084C1099.03 2.7316 1098.9 3.1618 1099.06 4.35583C1099.17 5.15545 1099.87 11.7817 1100.61 19.0806C1101.5 27.8482 1102.16 32.7844 1102.55 33.6283C1103.32 35.2733 1104.1 35.8397 1112.51 40.8694C1121.72 46.3763 1120.73 46.3759 1129.94 40.874C1138.39 35.8232 1139.33 35.1305 1140.02 33.4636C1140.32 32.7463 1141.14 26.3579 1141.87 19.1802C1142.59 12.0383 1143.28 5.46136 1143.4 4.56478C1143.59 3.17065 1143.48 2.79432 1142.67 1.96738L1141.71 1H1121.22H1100.73L1099.8 1.95084ZM1115.54 7.54158C1116.22 8.23345 1116.3 8.82412 1116.3 13.3936V18.476L1122.1 12.624C1128.32 6.35563 1128.87 6.03664 1130.52 7.71667C1132.06 9.28242 1131.75 10.0339 1127.88 14.0408L1124.32 17.7388L1128.1 23.3183C1130.18 26.3871 1132.04 29.2877 1132.23 29.7637C1132.96 31.6262 1131.17 33.5798 1129.21 33.0576C1128.7 32.9222 1126.97 30.71 1124.56 27.0952L1120.72 21.3478L1118.51 23.5715L1116.3 25.7953V28.7617C1116.3 31.508 1116.22 31.7874 1115.3 32.5254C1114.05 33.5232 1113.62 33.5232 1112.37 32.5254L1111.37 31.7281V20.0476V8.36698L1112.37 7.56968C1113.63 6.5665 1114.57 6.55842 1115.54 7.54158ZM1145.34 7.02865C1145.2 7.16948 1145.09 7.60238 1145.09 7.99065C1145.09 8.66828 1146.2 8.69598 1173.31 8.69598C1201.03 8.69598 1201.54 8.70984 1202.29 9.46558C1203.01 10.1948 1203.05 10.7481 1203.05 20.0476C1203.05 29.347 1203.01 29.9003 1202.29 30.6295C1201.54 31.386 1201.03 31.3991 1172.17 31.3991H1142.82V32.3611V33.3231H1172.19C1204.43 33.3231 1203.15 33.4147 1204.37 31.027C1205.21 29.3647 1205.21 10.7304 1204.37 9.06808C1203.15 6.68695 1204.29 6.77199 1173.58 6.77199C1158.19 6.77199 1145.48 6.88743 1145.34 7.02865ZM1148.88 14.0601C1148.88 14.508 1149.12 14.8528 1149.44 14.8528C1149.93 14.8528 1150.01 15.7721 1150.01 20.8172C1150.01 26.4741 1150.05 26.7815 1150.75 26.7815C1151.39 26.7815 1151.51 26.4668 1151.6 24.5689C1151.7 22.6657 1151.82 22.3564 1152.46 22.3564C1152.97 22.3564 1153.57 23.0263 1154.37 24.4727C1155.36 26.2759 1155.71 26.6068 1156.75 26.7096C1157.74 26.8081 1157.97 26.6934 1157.97 26.0812C1157.97 25.6691 1157.67 25.2477 1157.3 25.1446C1156.94 25.0415 1156.24 24.158 1155.74 23.1814L1154.84 21.4055L1156.42 19.2837L1157.99 17.1616H1156.92C1156.07 17.1616 1155.58 17.534 1154.64 18.8932C1153.9 19.9529 1153.15 20.6248 1152.69 20.6248C1152 20.6248 1151.93 20.3208 1151.83 17.0654L1151.72 13.506L1150.3 13.3867C1149.08 13.2839 1148.88 13.379 1148.88 14.0601ZM1158.73 14.0601C1158.73 14.508 1158.97 14.8528 1159.29 14.8528C1159.77 14.8528 1159.86 15.7721 1159.86 20.8172V26.7815H1160.81C1161.74 26.7815 1161.76 26.7315 1161.76 23.6858C1161.76 20.9118 1161.85 20.4916 1162.69 19.6454C1163.69 18.6223 1165.66 18.3614 1166.18 19.1818C1166.35 19.4465 1166.58 21.2212 1166.68 23.1259L1166.87 26.5891L1168.29 26.7084C1169.51 26.8112 1169.71 26.7161 1169.71 26.035C1169.71 25.5991 1169.47 25.2423 1169.18 25.2423C1168.78 25.2423 1168.62 24.4524 1168.52 21.9819C1168.41 19.2179 1168.26 18.5899 1167.53 17.8542C1166.34 16.649 1164.03 16.6679 1162.74 17.8931L1161.79 18.7997L1161.68 16.153L1161.57 13.506L1160.15 13.3867C1158.93 13.2839 1158.73 13.379 1158.73 14.0601ZM1180.7 14.0601C1180.7 14.5018 1180.94 14.8528 1181.25 14.8528C1181.72 14.8528 1181.83 15.8556 1181.92 20.721L1182.02 26.5891L1183.44 26.7084C1184.66 26.8112 1184.86 26.7161 1184.86 26.035C1184.86 25.5933 1184.62 25.2423 1184.3 25.2423C1183.84 25.2423 1183.73 24.2396 1183.64 19.3742L1183.54 13.506L1182.12 13.3867C1180.9 13.2839 1180.7 13.379 1180.7 14.0601ZM1193.95 14.2756C1193.95 14.9809 1194.16 15.2376 1194.71 15.2376C1195.27 15.2376 1195.47 14.9809 1195.47 14.2756C1195.47 13.5702 1195.27 13.3136 1194.71 13.3136C1194.16 13.3136 1193.95 13.5702 1193.95 14.2756ZM1187.14 15.8148C1187.14 16.9049 1186.99 17.1616 1186.38 17.1616C1185.87 17.1616 1185.62 17.4182 1185.62 17.9312C1185.62 18.4441 1185.87 18.7008 1186.38 18.7008C1187.07 18.7008 1187.14 18.9574 1187.14 21.7965C1187.14 24.5705 1187.23 24.9907 1188.07 25.8369C1189.26 27.0505 1191.3 27.161 1191.3 26.0119C1191.3 25.5063 1191.05 25.2423 1190.57 25.2423C1189.33 25.2423 1188.65 23.7693 1188.65 21.1161V18.7008H1189.79C1190.67 18.7008 1190.92 18.5299 1190.92 17.9312C1190.92 17.3324 1190.67 17.1616 1189.79 17.1616C1188.74 17.1616 1188.65 17.0546 1188.65 15.8148C1188.65 14.7246 1188.51 14.468 1187.89 14.468C1187.28 14.468 1187.14 14.7246 1187.14 15.8148ZM1173.24 17.202C1172.06 17.5487 1171.32 18.6958 1171.79 19.4669C1172.16 20.0776 1172.89 19.9237 1173.6 19.0856C1174.7 17.7853 1176.71 18.3541 1176.98 20.0395C1177.08 20.6921 1176.81 20.8372 1175.1 21.0561C1171.87 21.4702 1170.35 23.0351 1171.03 25.2366C1171.6 27.0344 1174.87 27.6381 1176.29 26.2036C1177.01 25.4736 1177.29 25.474 1177.29 26.2043C1177.29 26.6076 1177.69 26.7815 1178.61 26.7815C1179.69 26.7815 1179.94 26.6349 1179.94 26.0119C1179.94 25.5844 1179.69 25.2423 1179.37 25.2423C1178.91 25.2423 1178.8 24.6463 1178.8 22.1855C1178.8 19.5527 1178.68 18.9971 1177.95 18.1801C1176.97 17.0931 1175 16.6844 1173.24 17.202ZM1192.82 17.9312C1192.82 18.3544 1193.07 18.7008 1193.37 18.7008C1193.82 18.7008 1193.95 19.4873 1194.04 22.645L1194.14 26.5891L1195.56 26.7084C1196.78 26.8112 1196.98 26.7161 1196.98 26.035C1196.98 25.5871 1196.74 25.2423 1196.42 25.2423C1195.95 25.2423 1195.85 24.5882 1195.85 21.6637C1195.85 17.7557 1195.59 17.1616 1193.88 17.1616C1193.07 17.1616 1192.82 17.3447 1192.82 17.9312ZM1177.29 22.568C1177.29 22.79 1177.04 23.4615 1176.73 24.0602C1175.9 25.6868 1174.41 26.1108 1173.34 25.0226C1172.56 24.2303 1172.59 23.8613 1173.5 22.9335C1174.31 22.1089 1177.29 21.8219 1177.29 22.568Z" fill="white"/>
<path fill-rule="evenodd" clip-rule="evenodd" d="M6.29726 2.20267C5.81443 2.43207 5.57369 2.69987 5.38805 3.2139C5.19804 3.7402 -0.0658203 37.4919 0.000623727 37.7583C0.0309477 37.8801 0.182064 38.1069 0.336456 38.2624L0.6171 38.545H4.78913C8.72293 38.545 8.9588 38.5535 8.91832 38.693C8.89471 38.7744 8.75695 39.616 8.61222 40.5631C8.3246 42.4457 8.33477 42.6075 8.76258 42.9464C8.96401 43.1059 9.12067 43.1127 12.6194 43.1127C16.5503 43.1127 16.4995 43.1179 17.0009 42.6587C17.417 42.2775 17.3397 42.6402 18.2671 36.7253C18.5882 34.6778 18.8936 32.8888 18.9457 32.7497C19.0779 32.3976 19.4312 32.0388 19.8279 31.8539C20.102 31.7261 20.374 31.6969 21.3043 31.6954C27.0372 31.686 30.8549 29.6893 32.9185 25.6209C34.039 23.412 34.6464 20.6796 34.5463 18.2982C34.4906 16.9734 34.2924 16.1307 33.8023 15.1337C33.3844 14.2837 32.5372 13.3338 31.751 12.8339L31.2064 12.4875L31.2711 11.7921C31.5048 9.28281 31.1537 7.5191 30.1115 5.96761C28.9364 4.21828 27.2706 3.15105 24.7667 2.54347C22.7961 2.06522 22.7215 2.06158 14.4099 2.02961L6.7239 2L6.29726 2.20267ZM52.8819 11.2846C52.5917 11.3944 52.2677 11.6891 52.165 11.9366C52.1045 12.0823 51.2001 17.6521 50.1552 24.3137C48.3362 35.9103 48.261 36.4369 48.3887 36.6855C48.462 36.8283 48.6171 36.9816 48.7334 37.0261C48.8505 37.0709 50.0196 37.1064 51.3544 37.1057C53.6925 37.1043 53.7736 37.0986 54.0925 36.9154C54.2732 36.8114 54.489 36.5932 54.572 36.4303C54.6697 36.2386 54.9014 34.9721 55.2297 32.8354C55.7865 29.2116 55.8682 28.9208 56.4086 28.6343C56.6679 28.4969 56.922 28.4792 58.641 28.4792C61.4827 28.4792 62.9829 28.2928 64.4832 27.7534C68.0478 26.4717 70.1577 23.3339 70.6098 18.6424C70.7525 17.1614 70.5201 15.6962 69.9668 14.5878C69.4948 13.6423 68.5306 12.7146 67.4919 12.2067C66.6005 11.7708 65.4948 11.458 64.3479 11.3169C63.5691 11.2213 53.1273 11.1918 52.8819 11.2846ZM118.827 11.4102C118.587 11.5348 118.401 11.7102 118.307 11.9003C118.21 12.097 117.525 16.2612 116.264 24.3154C114.522 35.4481 114.378 36.4537 114.489 36.6697C114.555 36.7991 114.708 36.9504 114.83 37.0059C115.146 37.151 119.96 37.1457 120.242 37C120.678 36.7745 120.718 36.6172 121.293 32.9288C121.88 29.1578 121.918 29.0174 122.43 28.6698C122.699 28.4873 122.785 28.4792 124.45 28.4792C128.135 28.4792 129.988 28.1508 131.809 27.1752C134.483 25.7427 136.032 23.2072 136.594 19.3439C136.758 18.2118 136.72 16.6451 136.509 15.8335C135.893 13.472 134.107 12.0089 131.128 11.4255C130.466 11.2957 129.68 11.2736 124.786 11.2468L119.2 11.2163L118.827 11.4102ZM162.019 11.3109C161.915 11.3529 161.775 11.5123 161.708 11.6649C161.64 11.8176 160.728 17.4594 159.679 24.2021C157.945 35.3506 157.783 36.4813 157.893 36.6774C158.116 37.0772 158.281 37.1044 160.489 37.1058C162.461 37.1069 162.567 37.0987 162.925 36.9167C163.165 36.7946 163.354 36.6202 163.451 36.4303C163.556 36.2249 164.179 32.45 165.488 24.0947C166.525 17.4731 167.374 11.9794 167.374 11.8866C167.374 11.7939 167.263 11.6068 167.128 11.4708L166.883 11.2236L164.545 11.2289C163.26 11.2319 162.123 11.2687 162.019 11.3109ZM61.4499 16.5026C63.1341 16.8057 63.8041 17.6674 63.69 19.384C63.5486 21.5132 62.6194 22.7144 60.8053 23.1133C60.1093 23.2664 56.7459 23.3888 56.7459 23.2611C56.7459 23.1537 57.6536 17.355 57.7219 17.026C57.75 16.8909 57.8686 16.6911 57.9857 16.5819C58.1904 16.3909 58.2482 16.3834 59.5092 16.3863C60.2301 16.3879 61.1034 16.4403 61.4499 16.5026ZM128.172 16.6288C128.602 16.7696 128.847 16.9158 129.152 17.2132C129.702 17.7492 129.869 18.3104 129.799 19.3845C129.686 21.1081 129.047 22.2327 127.852 22.8062C127.081 23.1763 126.658 23.2413 124.681 23.2934L122.854 23.3415V23.1525C122.854 22.9388 123.76 17.0973 123.828 16.8719C123.852 16.7917 123.974 16.6453 124.098 16.5466C124.315 16.3743 124.39 16.3685 125.962 16.4041C127.361 16.4356 127.683 16.4684 128.172 16.6288ZM77.7039 19.5634C74.6368 20.11 72.0117 22.0986 70.5348 24.994C69.5675 26.8902 69.1255 29.1152 69.3462 30.9767C69.7346 34.2527 71.5272 36.4929 74.3671 37.2515C75.0855 37.4433 75.3508 37.4699 76.5699 37.4715C77.8077 37.4731 78.0457 37.4493 78.7959 37.2482C80.1699 36.88 81.5259 36.1533 82.4398 35.2954L82.8078 34.9501L82.7512 35.2461C82.7201 35.409 82.6721 35.7777 82.6446 36.0656C82.5966 36.568 82.605 36.5996 82.8555 36.8518L83.1165 37.1146L85.4652 37.0897C87.7012 37.0659 87.8253 37.0562 88.0509 36.8867C88.1812 36.7888 88.3574 36.5893 88.4422 36.4434C88.555 36.2494 88.9224 34.1009 89.8072 28.4617C90.4731 24.2177 91.0179 20.6555 91.0179 20.5457C91.0179 20.4358 90.9074 20.2346 90.7724 20.0986L90.5268 19.8514H88.0359H85.545L85.2994 20.0986C85.1644 20.2346 85.0539 20.4123 85.0539 20.4935C85.0539 20.5747 85.0122 20.8822 84.9612 21.177L84.8685 21.7129L84.6953 21.48C84.0971 20.6757 83.4676 20.2143 82.5253 19.8891C81.2464 19.4478 79.148 19.3061 77.7039 19.5634ZM144.442 19.4811C141.022 19.9198 138.212 21.9051 136.65 24.9855C135.822 26.6174 135.436 28.2112 135.435 30.0018C135.433 32.3644 136.099 34.1194 137.554 35.5845C138.377 36.4132 139.05 36.8116 140.185 37.1426C142.93 37.9432 145.991 37.3434 148.178 35.5767L148.918 34.9785L148.863 35.3026C148.688 36.3369 148.696 36.5548 148.918 36.8155L149.131 37.0647L151.385 37.0887C153.592 37.1121 153.648 37.1085 154.013 36.9195C154.253 36.7953 154.438 36.6207 154.533 36.4303C154.629 36.2366 155.103 33.4336 155.904 28.3239C156.966 21.5457 157.114 20.4842 157.022 20.2907C156.82 19.866 156.693 19.8483 154.041 19.8719C151.133 19.8977 151.315 19.8308 151.121 20.9453C151.053 21.3342 150.985 21.6651 150.969 21.6807C150.954 21.6963 150.755 21.4758 150.527 21.1906C149.876 20.377 148.877 19.8648 147.424 19.5993C146.873 19.4987 144.911 19.4209 144.442 19.4811ZM93.5705 19.9723C93.4729 20.0416 93.3463 20.2121 93.2891 20.3511C93.1949 20.58 93.2293 20.7341 93.6526 21.9828C97.0317 31.9489 98.1579 35.2881 98.1579 35.3414C98.1579 35.3764 97.0995 36.9071 95.8059 38.743C93.7627 41.6428 93.4539 42.1214 93.4539 42.3892C93.4539 42.6037 93.5166 42.7606 93.6601 42.905L93.8663 43.1127L96.4531 43.1123C98.8405 43.1121 99.06 43.0997 99.3 42.9524C99.4769 42.8438 101.168 40.4567 104.588 35.4879C107.354 31.4703 110.743 26.5472 112.119 24.5478C114.333 21.3326 114.622 20.8752 114.622 20.5896C114.622 20.3595 114.563 20.2069 114.416 20.059L114.21 19.8514H111.663C109.348 19.8514 109.091 19.8655 108.828 20.0076C108.599 20.1314 107.887 21.1307 105.392 24.8286C103.661 27.3943 102.235 29.4832 102.222 29.4705C102.21 29.4579 101.631 27.5263 100.936 25.1781C100.241 22.8299 99.5944 20.7565 99.4995 20.5704C99.1505 19.8862 99.1982 19.8967 96.3099 19.8698C94.1471 19.8498 93.7203 19.8657 93.5705 19.9723ZM81.565 24.295C83.1885 24.7208 84.126 25.999 84.1289 27.7903C84.1318 29.6285 83.0125 31.4649 81.4187 32.2369C79.536 33.1488 77.2416 32.8903 76.1549 31.6439C74.9662 30.2807 75.0834 27.8487 76.4236 26.0674C76.8092 25.5548 77.5144 24.966 78.111 24.6584C78.9939 24.2034 80.5795 24.0365 81.565 24.295ZM147.791 24.3247C148.836 24.6522 149.474 25.2051 149.925 26.1755C150.139 26.6366 150.187 26.8585 150.218 27.5393C150.286 29.0021 149.8 30.2764 148.781 31.3047C147.8 32.295 146.6 32.7931 145.196 32.7931C143.512 32.7931 142.322 32.1289 141.728 30.8571C141.403 30.1621 141.324 29.0184 141.539 28.1009C141.972 26.2447 143.354 24.778 145.12 24.2999C145.797 24.1166 147.168 24.1293 147.791 24.3247Z" fill="#EAEAEA"/>
</svg>
